<svg width="94" height="94" viewBox="0 0 94 94" fill="none" xmlns="http://www.w3.org/2000/svg">
<path fill-rule="evenodd" clip-rule="evenodd" d="M30.8637 8.04409C34.7785 3.54192 40.5558 0.6875 47 0.6875C53.4439 0.6875 59.2209 3.54164 63.1357 8.04342C69.088 7.62755 75.1923 9.69425 79.7495 14.2515C84.3067 18.8087 86.3734 24.9129 85.9576 30.8652C90.4588 34.7799 93.3125 40.5566 93.3125 47C93.3125 53.4446 90.4577 59.2222 85.9551 63.1371C86.37 69.0883 84.3032 75.1913 79.7468 79.7477C75.1904 84.3041 69.0874 86.3709 63.1362 85.956C59.2214 90.4581 53.4442 93.3125 47 93.3125C40.5562 93.3125 34.7792 90.4584 30.8644 85.9567C24.9121 86.3727 18.8078 84.3059 14.2505 79.7487C9.69329 75.1915 7.62658 69.0872 8.04246 63.1349C3.54123 59.2201 0.6875 53.4435 0.6875 47C0.6875 40.5562 3.54152 34.7793 8.04313 30.8645C7.62772 24.9127 9.69448 18.8091 14.2513 14.2523C18.8082 9.6954 24.9119 7.62865 30.8637 8.04409ZM64.1489 38.3832C65.2925 36.7821 64.9217 34.5572 63.3207 33.4136C61.7196 32.27 59.4947 32.6408 58.3511 34.2418L42.9829 55.7573L35.2691 48.0434C33.8778 46.6522 31.6222 46.6522 30.2309 48.0434C28.8397 49.4347 28.8397 51.6903 30.2309 53.0816L40.9184 63.7691C41.6589 64.5096 42.6877 64.8867 43.7313 64.8004C44.775 64.714 45.7278 64.1728 46.3364 63.3207L64.1489 38.3832Z" fill="#E7B22C"/>
</svg>
